<svg width="123" height="30" viewBox="0 0 123 30" fill="none" xmlns="http://www.w3.org/2000/svg">
<path d="M43.1161 25.6662C41.8887 25.6662 40.7275 25.5718 39.6323 25.383C38.5371 25.1753 37.6024 24.892 36.8283 24.5333V20.1432C37.678 20.5397 38.6221 20.8607 39.6606 21.1062C40.6991 21.3516 41.6716 21.4744 42.5779 21.4744C43.522 21.4744 44.2301 21.3988 44.7022 21.2478C45.1931 21.0778 45.4386 20.7096 45.4386 20.1432C45.4386 19.7466 45.297 19.4351 45.0137 19.2085C44.7494 18.9819 44.3245 18.7742 43.7392 18.5854C43.1727 18.3965 42.4269 18.1605 41.5016 17.8773C40.2743 17.4808 39.3019 17.0465 38.5843 16.5744C37.8668 16.1024 37.3475 15.5264 37.0265 14.8467C36.7244 14.1669 36.5734 13.3361 36.5734 12.3542C36.5734 10.5604 37.2059 9.20089 38.471 8.27566C39.755 7.33154 41.6527 6.85949 44.164 6.85949C45.1648 6.85949 46.1939 6.94446 47.2513 7.1144C48.3276 7.28434 49.1962 7.47316 49.857 7.68087V12.0993C48.9696 11.7406 48.1199 11.4856 47.3079 11.3346C46.496 11.1835 45.7313 11.108 45.0137 11.108C44.1829 11.108 43.4748 11.1741 42.8895 11.3063C42.3041 11.4384 42.0115 11.7783 42.0115 12.3259C42.0115 12.798 42.2569 13.1473 42.7479 13.3739C43.2577 13.5816 44.1546 13.8554 45.4386 14.1952C46.9303 14.5918 48.0632 15.0733 48.8374 15.6397C49.6304 16.2062 50.1686 16.8671 50.4518 17.6224C50.7351 18.3588 50.8767 19.199 50.8767 20.1432C50.8767 21.8048 50.2347 23.1454 48.9507 24.1651C47.6667 25.1658 45.7218 25.6662 43.1161 25.6662Z" fill="white"/>
<path d="M60.696 25.6662C58.0148 25.6662 56.0321 25.0714 54.7481 23.8818C53.483 22.6923 52.8505 20.9551 52.8505 18.6703C52.8505 16.4045 53.4925 14.6767 54.7765 13.4872C56.0605 12.2787 58.0336 11.6745 60.696 11.6745C63.3773 11.6745 65.36 12.2787 66.644 13.4872C67.9468 14.6767 68.5983 16.4045 68.5983 18.6703C68.5983 20.9551 67.9563 22.6923 66.6723 23.8818C65.3883 25.0714 63.3962 25.6662 60.696 25.6662ZM60.696 21.7859C61.5646 21.7859 62.1877 21.5404 62.5654 21.0495C62.9619 20.5586 63.1602 19.7655 63.1602 18.6703C63.1602 17.5941 62.9619 16.8104 62.5654 16.3195C62.1877 15.8097 61.5646 15.5548 60.696 15.5548C59.8463 15.5548 59.2327 15.8097 58.855 16.3195C58.4774 16.8104 58.2886 17.5941 58.2886 18.6703C58.2886 19.7655 58.4774 20.5586 58.855 21.0495C59.2327 21.5404 59.8463 21.7859 60.696 21.7859Z" fill="white"/>
<path d="M71.8964 25.383V15.8946H70.1687V11.9577H71.8964V11.0797C71.8964 9.56909 72.3307 8.32286 73.1993 7.34098C74.0679 6.34022 75.3707 5.83984 77.1079 5.83984C77.8443 5.83984 78.4958 5.89649 79.0622 6.00979C79.6476 6.12308 80.1952 6.28358 80.705 6.49128V9.94674C80.4217 9.85233 80.1385 9.7768 79.8553 9.72015C79.5909 9.6635 79.3077 9.63518 79.0056 9.63518C78.3258 9.63518 77.8538 9.75791 77.5894 10.0034C77.3439 10.2489 77.2212 10.6454 77.2212 11.193V11.9577H80.3934L80.1668 15.8946H77.2212V25.383H71.8964Z" fill="white"/>
<path d="M88.4273 25.6662C86.879 25.6662 85.7271 25.2603 84.9718 24.4483C84.2354 23.6364 83.8672 22.5318 83.8672 21.1345V14.9033H81.9696V11.9577H83.8672V9.06871L87.6909 7.93578V11.9577H91.0897L90.8631 14.9033H87.6909V20.8796C87.6909 21.616 87.8608 22.1258 88.2007 22.409C88.5406 22.6734 89.0693 22.8056 89.7868 22.8056C90.3155 22.8056 90.8631 22.7111 91.4296 22.5223V25.1564C91.0142 25.3263 90.561 25.4491 90.0701 25.5246C89.5791 25.619 89.0315 25.6662 88.4273 25.6662Z" fill="white"/>
<path d="M100.954 25.6662C98.6317 25.6662 96.7907 25.0903 95.4311 23.9385C94.0716 22.7678 93.3919 21.0023 93.3919 18.642C93.3919 16.5083 93.9583 14.8184 95.0913 13.5721C96.2431 12.307 97.9519 11.6745 100.218 11.6745C102.295 11.6745 103.881 12.222 104.976 13.3172C106.09 14.3935 106.647 15.8097 106.647 17.5657V20.0015H96.9323C97.14 21.0778 97.6309 21.8142 98.4051 22.2108C99.1982 22.6073 100.312 22.8056 101.747 22.8056C102.465 22.8056 103.192 22.7395 103.928 22.6073C104.683 22.4751 105.325 22.3052 105.854 22.0975V24.8165C105.231 25.0998 104.504 25.3075 103.673 25.4396C102.842 25.5907 101.936 25.6662 100.954 25.6662ZM96.9323 17.6507H103.305V16.9143C103.305 16.1401 103.078 15.5359 102.625 15.1016C102.172 14.6484 101.407 14.4218 100.331 14.4218C99.066 14.4218 98.1785 14.6767 97.6687 15.1866C97.1778 15.6964 96.9323 16.5178 96.9323 17.6507Z" fill="white"/>
<path d="M107.725 25.383L112.88 18.557L107.924 11.9577H112.059L114.948 15.8663L117.837 11.9577H121.972L117.044 18.557L122.17 25.383H118.007L114.948 21.2761L111.889 25.383H107.725Z" fill="white"/>
<path fill-rule="evenodd" clip-rule="evenodd" d="M19.358 1.46447C17.1034 -0.488159 13.7567 -0.488155 11.5021 1.46447L6.20429 6.05258L1.70873 10.9328C-0.407304 13.2298 -0.407304 16.766 1.70873 19.0631L2.3078 19.7134H19.8929C20.5682 19.7134 21.0611 19.6134 21.3714 19.4133C21.6817 19.195 21.8368 18.8494 21.8368 18.3765C21.8368 17.9036 21.6817 17.567 21.3714 17.367C21.0611 17.1669 20.5682 17.0668 19.8929 17.0668H9.92682C8.74039 17.0668 7.71823 16.9395 6.86034 16.6848C6.00246 16.4302 5.2906 16.0755 4.72476 15.6207C4.15892 15.166 3.7391 14.6203 3.46531 13.9837C3.19152 13.3288 3.05462 12.6103 3.05462 11.8282C3.05462 10.9733 3.20064 10.2002 3.49269 9.509C3.80299 8.7996 4.26844 8.19934 4.88903 7.70821C5.52788 7.21709 6.34014 6.8351 7.32579 6.56226C8.3297 6.28941 9.52526 6.15299 10.9125 6.15299H24.7483L24.6558 6.05258L19.358 1.46447ZM29.1216 10.9005H10.4744C9.8173 10.9005 9.32448 10.9915 8.99593 11.1734C8.68563 11.3553 8.53048 11.6827 8.53048 12.1556C8.53048 12.6285 8.68563 12.965 8.99593 13.1651C9.32448 13.347 9.8173 13.438 10.4744 13.438H20.4405C22.6856 13.438 24.3922 13.8563 25.5604 14.6931C26.7286 15.5116 27.3127 16.7576 27.3127 18.4311C27.3127 19.3587 27.1666 20.1955 26.8746 20.9412C26.5826 21.687 26.1171 22.3146 25.4783 22.8239C24.8394 23.3332 24.018 23.7243 23.0141 23.9971C22.0285 24.27 20.842 24.4064 19.4548 24.4064H6.73901L11.5021 28.5314C13.7567 30.484 17.1034 30.484 19.358 28.5314L24.6558 23.9433L29.1513 19.0631C31.2674 16.766 31.2674 13.2298 29.1513 10.9328L29.1216 10.9005Z" fill="white"/>
</svg>
