<svg width="165" height="42" viewBox="0 0 165 42" fill="none" xmlns="http://www.w3.org/2000/svg">
<path d="M58.0534 34.8714C56.4167 34.8714 54.8681 34.7455 53.4077 34.4937C51.9473 34.2167 50.7009 33.839 49.6685 33.3606V27.5063C50.8016 28.0351 52.0606 28.4632 53.4455 28.7905C54.8303 29.1178 56.1271 29.2815 57.3357 29.2815C58.5947 29.2815 59.539 29.1808 60.1685 28.9793C60.8231 28.7527 61.1505 28.2617 61.1505 27.5063C61.1505 26.9776 60.9616 26.5621 60.5839 26.2599C60.2314 25.9578 59.6649 25.6808 58.8843 25.429C58.1289 25.1772 57.1343 24.8624 55.9005 24.4847C54.2638 23.956 52.967 23.3768 52.0102 22.7473C51.0534 22.1178 50.3609 21.3499 49.9329 20.4434C49.53 19.5369 49.3286 18.429 49.3286 17.1197C49.3286 14.7276 50.1721 12.9146 51.8591 11.6808C53.5714 10.4218 56.1019 9.79233 59.4508 9.79233C60.7854 9.79233 62.1577 9.90564 63.5677 10.1323C65.003 10.3589 66.1613 10.6107 67.0426 10.8877V16.7797C65.8591 16.3013 64.726 15.9614 63.6433 15.7599C62.5605 15.5585 61.5408 15.4578 60.5839 15.4578C59.476 15.4578 58.5318 15.5459 57.7512 15.7222C56.9706 15.8984 56.5803 16.3517 56.5803 17.0819C56.5803 17.7114 56.9077 18.1772 57.5624 18.4794C58.2422 18.7563 59.4382 19.1214 61.1505 19.5747C63.1397 20.1035 64.6505 20.7455 65.6828 21.5009C66.7404 22.2563 67.458 23.1376 67.8357 24.1448C68.2134 25.1268 68.4023 26.2473 68.4023 27.5063C68.4023 29.7222 67.5462 31.5099 65.8339 32.8696C64.1217 34.2042 61.5282 34.8714 58.0534 34.8714Z" fill="#131022"/>
<path d="M81.4966 34.8714C77.921 34.8714 75.2771 34.0783 73.5649 32.4919C71.8779 30.9056 71.0343 28.5891 71.0343 25.5423C71.0343 22.5207 71.8905 20.2168 73.6027 18.6304C75.3149 17.0189 77.9462 16.2132 81.4966 16.2132C85.0721 16.2132 87.716 17.0189 89.4282 18.6304C91.1656 20.2168 92.0343 22.5207 92.0343 25.5423C92.0343 28.5891 91.1782 30.9056 89.466 32.4919C87.7537 34.0783 85.0973 34.8714 81.4966 34.8714ZM81.4966 29.697C82.6548 29.697 83.4858 29.3696 83.9894 28.715C84.5181 28.0603 84.7825 27.0027 84.7825 25.5423C84.7825 24.1071 84.5181 23.0621 83.9894 22.4074C83.4858 21.7276 82.6548 21.3876 81.4966 21.3876C80.3635 21.3876 79.5451 21.7276 79.0415 22.4074C78.5379 23.0621 78.2861 24.1071 78.2861 25.5423C78.2861 27.0027 78.5379 28.0603 79.0415 28.715C79.5451 29.3696 80.3635 29.697 81.4966 29.697Z" fill="#131022"/>
<path d="M96.4324 34.4937V21.8409H94.1285V16.5909H96.4324V15.42C96.4324 13.4056 97.0115 11.7438 98.1698 10.4344C99.3281 9.09988 101.066 8.43262 103.382 8.43262C104.364 8.43262 105.233 8.50816 105.988 8.65924C106.769 8.81032 107.499 9.02434 108.179 9.30132V13.9092C107.801 13.7833 107.423 13.6826 107.046 13.6071C106.693 13.5315 106.315 13.4938 105.913 13.4938C105.006 13.4938 104.377 13.6574 104.024 13.9848C103.697 14.3121 103.533 14.8409 103.533 15.5711V16.5909H107.763L107.461 21.8409H103.533V34.4937H96.4324Z" fill="#131022"/>
<path d="M119.345 34.8714C117.28 34.8714 115.744 34.33 114.737 33.2473C113.755 32.1646 113.264 30.6915 113.264 28.8282V20.5189H110.733V16.5908H113.264V12.7383L118.363 11.2275V16.5908H122.895L122.593 20.5189H118.363V28.4883C118.363 29.4703 118.589 30.1502 119.043 30.5279C119.496 30.8804 120.201 31.0566 121.158 31.0566C121.863 31.0566 122.593 30.9307 123.348 30.6789V34.1915C122.794 34.4181 122.19 34.5818 121.535 34.6825C120.881 34.8084 120.15 34.8714 119.345 34.8714Z" fill="#555555"/>
<path d="M136.05 34.8714C132.952 34.8714 130.497 34.1034 128.684 32.5674C126.872 31.0063 125.965 28.652 125.965 25.5045C125.965 22.6592 126.72 20.4056 128.231 18.7437C129.767 17.0567 132.046 16.2131 135.068 16.2131C137.837 16.2131 139.952 16.9434 141.413 18.4038C142.898 19.839 143.641 21.7275 143.641 24.0692V27.3174H130.686C130.963 28.7527 131.618 29.7347 132.65 30.2635C133.708 30.7923 135.193 31.0566 137.107 31.0566C138.064 31.0566 139.033 30.9685 140.015 30.7923C141.023 30.616 141.879 30.3894 142.584 30.1124V33.7383C141.753 34.116 140.783 34.393 139.675 34.5692C138.568 34.7707 137.359 34.8714 136.05 34.8714ZM130.686 24.1826H139.184V23.2005C139.184 22.1682 138.882 21.3624 138.278 20.7833C137.674 20.179 136.654 19.8768 135.219 19.8768C133.532 19.8768 132.348 20.2167 131.668 20.8966C131.014 21.5764 130.686 22.6718 130.686 24.1826Z" fill="#555555"/>
<path d="M145.079 34.4937L151.953 25.3912L145.344 16.5908H150.858L154.71 21.8031L158.563 16.5908H164.077L157.505 25.3912L164.342 34.4937H158.79L154.71 29.0171L150.631 34.4937H145.079Z" fill="#555555"/>
<path fill-rule="evenodd" clip-rule="evenodd" d="M25.0615 1.46447C22.8069 -0.488157 19.4602 -0.488157 17.2056 1.46447L8.83088 8.71735L1.58702 16.581C-0.52901 18.878 -0.529007 22.4142 1.58703 24.7113L3.63513 26.9346H27.0849C27.9855 26.9346 28.6427 26.8012 29.0565 26.5344C29.4703 26.2433 29.6772 25.7825 29.6772 25.1518C29.6772 24.5211 29.4703 24.0724 29.0565 23.8056C28.6427 23.5388 27.9855 23.4054 27.0849 23.4054H13.795C12.2129 23.4054 10.8498 23.2356 9.7058 22.896C8.5618 22.5564 7.61252 22.0834 6.85796 21.477C6.10341 20.8706 5.54358 20.1429 5.17847 19.2939C4.81336 18.4207 4.63081 17.4626 4.63081 16.4195C4.63081 15.2795 4.82553 14.2486 5.21498 13.3269C5.62877 12.3809 6.24945 11.5804 7.07703 10.9255C7.92894 10.2706 9.0121 9.76117 10.3265 9.39733C11.6652 9.03348 13.2595 8.85156 15.1094 8.85156H33.5599L33.4362 8.71735L25.0615 1.46447ZM39.3918 15.1825H14.5252C13.649 15.1825 12.9918 15.3037 12.5536 15.5463C12.1398 15.7889 11.933 16.2255 11.933 16.8561C11.933 17.4868 12.1398 17.9356 12.5536 18.2024C12.9918 18.4449 13.649 18.5662 14.5252 18.5662H27.8151C30.809 18.5662 33.0848 19.1241 34.6426 20.2399C36.2004 21.3314 36.9793 22.993 36.9793 25.2246C36.9793 26.4616 36.7846 27.5774 36.3951 28.5719C36.0057 29.5665 35.385 30.4033 34.5331 31.0825C33.6812 31.7617 32.5859 32.2832 31.2471 32.647C29.9327 33.0109 28.3506 33.1928 26.5007 33.1928H9.5443L17.2056 39.8278C19.4602 41.7804 22.8069 41.7804 25.0615 39.8278L33.4362 32.5749L40.6801 24.7113C42.7961 22.4142 42.7961 18.878 40.6801 16.581L39.3918 15.1825Z" fill="url(#paint0_linear_1_65)"/>
<defs>
<linearGradient id="paint0_linear_1_65" x1="21.1336" y1="0" x2="21.1336" y2="41.2923" gradientUnits="userSpaceOnUse">
<stop stop-color="#6366F1"/>
<stop offset="1" stop-color="#FF82D4"/>
</linearGradient>
</defs>
</svg>
